# xmcd
#
# Track frame offsets:
#	150
#	13015
#	25530
#	48080
#	61232
#	74701
#	91483
#	96915
#	109959
#	125003
#	136013
#	152005
#	164804
#	177162
#	192643
#	205277
#	218744
#	233953
#	245988
#	257457
#
# Disc length: 3603 seconds
#
# Revision: 0
# Processed by: cddbd v1.5.1PL0 Copyright (c) Steve Scherf et al.
# Submitted via: EasyCDDAExtractor 8.0.2.1
#
DISCID=260e1114
DTITLE=Various Artist - Best Of Motown Vol. 4 Cd 2
DYEAR=2004
DGENRE=Soul
TTITLE0=Martha Reeves and The Vandellas - Nowhere To Run
TTITLE1=Four Tops - Baby I Need Your Loving
TTITLE2=Lionel Richie - You Are
TTITLE3=Gladys Knight and The Pips - Take Me In Your Arms And Love
TTITLE4=Marvin Gaye - How Sweet It Is (To Be Loved B
TTITLE5=Commodores - Still
TTITLE6=The Supremes and The Temptations - Do You Know The Way To San Jos
TTITLE7=The Temptations - I Cant Get Next To You
TTITLE8=The Velvelettes - Everybody Needs Love
TTITLE9=Marvin Gaye and Mary Wells - Once Upon A Time
TTITLE10=Eddie Kendricks - Keep On Truckin
TTITLE11=David Ruffin - I Want You Back
TTITLE12=Smokey Robinson and The Miracles - Shop Around
TTITLE13=The Spinners - The Girl's Alright With Me
TTITLE14=The Isley Brothers - Behind A Painted Smile
TTITLE15=Diana Ross - Reach Out And Touch (Somebodys
TTITLE16=Edwin Starr - War
TTITLE17=Brenda Holloway - Embraceable You
TTITLE18=Michael Jackson - Rockin Robin
TTITLE19=The Marvelettes - Dont Mess With Bill
EXTD=
EXTT0=
EXTT1=
EXTT2=
EXTT3=
EXTT4=
EXTT5=
EXTT6=
EXTT7=
EXTT8=
EXTT9=
EXTT10=
EXTT11=
EXTT12=
EXTT13=
EXTT14=
EXTT15=
EXTT16=
EXTT17=
EXTT18=
EXTT19=
PLAYORDER=
